<svg width="56" height="56" viewBox="0 0 56 56" fill="none" xmlns="http://www.w3.org/2000/svg">
<path d="M27.8508 55.8168C43.1015 55.8168 55.4646 43.4537 55.4646 28.203C55.4646 12.9523 43.1015 0.589233 27.8508 0.589233C12.6001 0.589233 0.23703 12.9523 0.23703 28.203C0.23703 43.4537 12.6001 55.8168 27.8508 55.8168Z" fill="white"/>
<path d="M28.3513 0.593853C13.0941 0.317704 0.517799 12.4567 0.24165 27.7025C-0.0344994 42.9482 12.1046 55.536 27.3503 55.8122C42.596 56.0883 55.1839 43.9493 55.46 28.6921C55.7361 13.4463 43.597 0.858496 28.3513 0.593853ZM27.4424 50.6344C15.0732 50.4043 5.18932 40.1637 5.41945 27.7945C5.63807 15.4254 15.8786 5.54152 28.2478 5.76014C40.6285 5.99027 50.5008 16.2308 50.2822 28.6C50.0636 40.9691 39.8115 50.853 27.4424 50.6344Z" fill="#00ADA3"/>
<path d="M28.2155 8.06601C17.112 7.87037 7.91858 16.7416 7.72301 27.8451C7.5159 38.9372 16.3872 48.1306 27.4907 48.3377C38.5942 48.5333 47.7876 39.6621 47.9832 28.5701C48.1789 17.4666 39.319 8.27311 28.2155 8.06601ZM27.8531 13.8053L34.2517 25.2206L28.4123 21.9713C28.0637 21.778 27.6414 21.778 27.2928 21.9713L21.4533 25.2206L27.8531 13.8053ZM27.8531 42.5973L21.4533 31.182L27.2928 34.4313C27.4665 34.528 27.6598 34.5763 27.8519 34.5763C28.0441 34.5763 28.2374 34.528 28.4112 34.4313L34.2505 31.182L27.8531 42.5973ZM27.8531 32.1082L20.8298 28.2007L27.8531 24.2932L34.8754 28.2007L27.8531 32.1082Z" fill="#00ADA3"/>
</svg>
