<svg width="56" height="56" viewBox="0 0 56 56" fill="none" xmlns="http://www.w3.org/2000/svg">
<path d="M27.6169 55.8168C42.8676 55.8168 55.2307 43.4537 55.2307 28.203C55.2307 12.9523 42.8676 0.589233 27.6169 0.589233C12.3662 0.589233 0.00313568 12.9523 0.00313568 28.203C0.00313568 43.4537 12.3662 55.8168 27.6169 55.8168Z" fill="white"/>
<path d="M27.6169 0.589233C12.366 0.589233 0.00313568 12.9521 0.00313568 28.203C0.00313568 43.4539 12.366 55.8168 27.6169 55.8168C42.8678 55.8168 55.2307 43.4539 55.2307 28.203C55.2307 12.9521 42.8678 0.589233 27.6169 0.589233ZM27.6169 50.6392C15.2448 50.6392 5.18072 40.574 5.18072 28.203C5.18072 15.832 15.2448 5.76682 27.6169 5.76682C39.9891 5.76682 50.0531 15.8309 50.0531 28.203C50.0531 40.5752 39.9879 50.6392 27.6169 50.6392Z" fill="#FFAB2D"/>
<path d="M29.0425 29.0993H25.417V34.4851H29.0425C29.7742 34.4851 30.4531 34.1883 30.9294 33.6901C31.4276 33.2126 31.7245 32.5349 31.7245 31.7813C31.7256 30.3074 30.5164 29.0993 29.0425 29.0993Z" fill="#FFAB2D"/>
<path d="M27.6169 8.06796C16.5139 8.06796 7.48185 17.0999 7.48185 28.203C7.48185 39.3061 16.5139 48.338 27.6169 48.338C38.7199 48.338 47.752 39.3049 47.752 28.203C47.752 17.1011 38.7188 8.06796 27.6169 8.06796ZM31.7141 37.5272H29.3393V41.2597H26.8484V37.5272H25.4803V41.2597H22.9778V37.5272H18.578V35.1847H21.0057V21.1476H18.578V18.8051H22.9778V15.1474H25.4803V18.8051H26.8484V15.1474H29.3393V18.8051H31.5024C32.7105 18.8051 33.8243 19.3033 34.6193 20.0984C35.4144 20.8934 35.9126 22.0072 35.9126 23.2153C35.9126 25.5797 34.0463 27.5092 31.7141 27.6151C34.4491 27.6151 36.6547 29.8414 36.6547 32.5764C36.6547 35.3009 34.4502 37.5272 31.7141 37.5272Z" fill="#FFAB2D"/>
<path d="M30.6441 25.7914C31.079 25.3564 31.3436 24.7731 31.3436 24.1162C31.3436 22.8125 30.2839 21.7517 28.9792 21.7517H25.417V26.491H28.9792C29.6258 26.491 30.2195 26.2148 30.6441 25.7914Z" fill="#FFAB2D"/>
</svg>
