<svg width="56" height="56" viewBox="0 0 56 56" fill="none" xmlns="http://www.w3.org/2000/svg">
<path d="M28.3831 55.8168C43.6338 55.8168 55.9969 43.4537 55.9969 28.203C55.9969 12.9523 43.6338 0.589233 28.3831 0.589233C13.1324 0.589233 0.769302 12.9523 0.769302 28.203C0.769302 43.4537 13.1324 55.8168 28.3831 55.8168Z" fill="white"/>
<path d="M28.8836 0.593853C13.6264 0.317704 1.05007 12.4567 0.773922 27.7025C0.497773 42.9482 12.6368 55.536 27.8825 55.8122C43.1283 56.0883 55.7161 43.9493 55.9923 28.6921C56.2684 13.4463 44.1293 0.858496 28.8836 0.593853ZM27.9746 50.6344C15.6054 50.4043 5.72159 40.1637 5.95172 27.7945C6.17034 15.4254 16.4109 5.54152 28.7801 5.76014C41.1608 5.99027 51.033 16.2308 50.8145 28.6C50.5958 40.9691 40.3438 50.853 27.9746 50.6344Z" fill="#374C98"/>
<path d="M28.7478 8.06601C17.6443 7.87037 8.45079 16.7416 8.25522 27.8451C8.04811 38.9372 16.9194 48.1306 28.0229 48.3377C39.1264 48.5333 48.3199 39.6621 48.5154 28.5701C48.7111 17.4666 39.8513 8.27311 28.7478 8.06601ZM37.0438 39.8922H18.7259L20.9696 27.477L18.3692 28.0178V25.9007L21.3608 25.2678L23.3054 14.59H30.6118L28.9549 23.6799L31.5093 23.1391V25.2563L28.5636 25.8661L26.8608 35.2552H38.4015L37.0438 39.8922Z" fill="#374C98"/>
</svg>
