<svg width="56" height="56" viewBox="0 0 56 56" fill="none" xmlns="http://www.w3.org/2000/svg">
<path d="M28.1492 55.8168C43.3999 55.8168 55.763 43.4537 55.763 28.203C55.763 12.9523 43.3999 0.589233 28.1492 0.589233C12.8985 0.589233 0.5354 12.9523 0.5354 28.203C0.5354 43.4537 12.8985 55.8168 28.1492 55.8168Z" fill="white"/>
<path d="M28.6497 0.593853C13.3924 0.317704 0.816169 12.4567 0.54002 27.7025C0.263871 42.9482 12.4029 55.536 27.6487 55.8122C42.8944 56.0883 55.4822 43.9493 55.7583 28.6921C56.0345 13.4463 43.8955 0.858496 28.6497 0.593853ZM27.7407 50.6344C15.3715 50.4043 5.48769 40.1637 5.71782 27.7945C5.93644 15.4254 16.177 5.54152 28.5461 5.76014C40.9268 5.99027 50.7992 16.2308 50.5806 28.6C50.3619 40.9691 40.1099 50.853 27.7407 50.6344Z" fill="#FF782C"/>
<path d="M28.5116 8.06137C17.4081 7.86579 8.21469 16.7371 8.01911 27.8406C7.95353 31.3339 8.7923 34.6373 10.3134 37.5322H16.643V17.7116C16.643 16.5 18.2895 16.1146 18.8246 17.2019L28.1492 36.0847L37.4738 17.2031C38.0089 16.1146 39.6555 16.5 39.6555 17.7116V37.5322H45.9654C47.3807 34.8421 48.223 31.8045 48.2793 28.5654C48.475 17.4619 39.6152 8.26847 28.5116 8.06137Z" fill="#FF782C"/>
<path d="M37.3542 38.6829V22.6409L29.1802 39.1926C28.7936 39.9785 27.5037 39.9785 27.1171 39.1926L18.9442 22.6409V38.6829C18.9442 39.318 18.4299 39.8335 17.7936 39.8335H11.7517C15.3313 44.8629 21.1511 48.2088 27.7868 48.3331C34.6871 48.4551 40.8452 45.0723 44.5698 39.8335H38.5048C37.8685 39.8335 37.3542 39.318 37.3542 38.6829Z" fill="#FF782C"/>
</svg>
