<svg width="40" height="40" viewBox="0 0 40 40" fill="none" xmlns="http://www.w3.org/2000/svg">
<circle cx="20" cy="20" r="20" fill="#2C415A"/>
<g clip-path="url(#clip0_384_1890)">
<path d="M21 29.95L21 27.938C23.0173 27.6813 24.8611 26.6661 26.1568 25.0988C27.4525 23.5314 28.1027 21.5295 27.9754 19.5C27.848 17.4704 26.9527 15.5655 25.4713 14.1724C23.9898 12.7793 22.0336 12.0025 20 12C18.0514 12 16.1698 12.7112 14.7083 14C13.2467 15.2888 12.3058 17.0667 12.062 19L10.049 19C10.551 13.947 14.815 10 20 10C25.523 10 30 14.477 30 20C30 25.185 26.053 29.449 21 29.95ZM12 26.586L20 18.586L21.414 20L13.414 28L18 28L18 30L10 30L10 22L12 22L12 26.586Z" fill="white"/>
</g>
<defs>
<clipPath id="clip0_384_1890">
<rect width="24" height="24" fill="white" transform="translate(8 8)"/>
</clipPath>
</defs>
</svg>
