<svg width="38" height="57" viewBox="0 0 38 57" fill="none" xmlns="http://www.w3.org/2000/svg">
<path d="M26.7413 49.0995L28.2199 55.7339L22.3052 57L20.8645 50.5302C14.9245 51.4798 8.89598 50.8974 5.07922 49.0742L6.72226 41.1231C10.6521 42.7372 14.9321 43.3042 19.1457 42.769L16.934 32.8681C10.0208 32.7288 2.18508 32.1717 0.301977 23.6888C-1.08824 17.3583 2.27358 11.0278 11.3858 7.84984L9.91971 1.2661L15.8344 0L17.2752 6.45713C21.5609 5.75225 25.9523 6.0733 30.0905 7.39405L28.7508 15.3452C25.6049 14.349 22.2929 13.9875 19.0067 14.2817L21.2563 24.4105C28.1568 24.4864 35.8662 25.0815 37.6861 33.4378C39.1016 39.5658 35.7777 45.8963 26.7413 49.0995ZM15.0003 24.2079L13.1299 15.801C10.1599 17.2064 9.33839 19.2068 9.73018 21.1566C10.122 23.1064 12.2199 23.9674 15.0003 24.2079ZM28.359 36.2359C27.8914 34.1595 25.9324 33.4125 23.1899 33.096L25.0098 41.275C27.8155 39.9582 28.7761 38.1351 28.359 36.2359Z" fill="#2C415A" fill-opacity="0.2"/>
</svg>
