<svg width="31" height="31" viewBox="0 0 31 31" fill="none" xmlns="http://www.w3.org/2000/svg">
<g clip-path="url(#clip0_350_785)">
<path d="M23.1885 0H7.81011C7.15768 0.00025665 6.53203 0.259516 6.07064 0.720813C5.60926 1.18211 5.34987 1.80771 5.34949 2.46014V28.5413C5.35013 29.1937 5.60959 29.8191 6.07093 30.2804C6.53226 30.7416 7.15776 31.0009 7.81011 31.0015H23.1885C23.841 31.0008 24.4666 30.7415 24.9281 30.2803C25.3896 29.8191 25.6495 29.1938 25.6506 28.5413V2.46402C25.6498 1.81145 25.3901 1.18585 24.9285 0.724599C24.4669 0.263344 23.8411 0.00413121 23.1885 0.003875" fill="#405866"/>
<path d="M21.593 1.87743H9.40613C8.88926 1.87742 8.39349 2.08242 8.02755 2.44745C7.66161 2.81248 7.45538 3.30774 7.4541 3.82461V24.4914C7.45513 25.0084 7.66127 25.5038 8.02727 25.8689C8.39326 26.234 8.88918 26.4389 9.40613 26.4386H21.593C22.6683 26.4386 23.5402 25.5619 23.5402 24.4914V3.82268C23.5402 2.74736 22.6659 1.87549 21.593 1.87549" fill="#85CFEA"/>
<path d="M15.1609 1.87743H9.40894C8.89207 1.87743 8.39629 2.08243 8.03036 2.44746C7.66442 2.81249 7.45819 3.30775 7.45691 3.82462V24.4914C7.45794 25.0084 7.66408 25.5038 8.03007 25.8689C8.39607 26.234 8.89199 26.4389 9.40894 26.4386H21.5958C21.9896 26.4386 22.3534 26.318 22.6595 26.1194C17.4781 19.3702 14.7046 10.2973 15.1623 1.87646" fill="#28A6DE"/>
<path d="M17.0984 28.767C17.0984 29.6471 16.3834 30.3645 15.5014 30.3645C14.6194 30.3645 13.9044 29.6476 13.9044 28.767C13.9044 27.8864 14.6194 27.1696 15.5014 27.1696C16.3834 27.1696 17.0984 27.8864 17.0984 28.767ZM10.9444 28.767C10.9477 28.9224 10.9199 29.0769 10.8627 29.2214C10.8055 29.3659 10.72 29.4976 10.6113 29.6087C10.5026 29.7198 10.3728 29.808 10.2296 29.8683C10.0863 29.9286 9.9325 29.9597 9.77707 29.9598C9.62165 29.9599 9.46776 29.929 9.32443 29.8689C9.18111 29.8088 9.05122 29.7207 8.94237 29.6097C8.83352 29.4988 8.7479 29.3672 8.69053 29.2228C8.63316 29.0783 8.60519 28.9239 8.60826 28.7685C8.61429 28.4628 8.73991 28.1717 8.95815 27.9576C9.1764 27.7434 9.46988 27.6234 9.77562 27.6232C10.0814 27.623 10.375 27.7427 10.5935 27.9565C10.812 28.1704 10.938 28.4614 10.9444 28.767ZM20.0579 28.767C20.0534 28.9232 20.0803 29.0787 20.137 29.2243C20.1936 29.37 20.2789 29.5027 20.3878 29.6148C20.4967 29.7269 20.627 29.816 20.7709 29.8768C20.9148 29.9376 21.0695 29.969 21.2257 29.969C21.382 29.969 21.5367 29.9376 21.6806 29.8768C21.8245 29.816 21.9548 29.7269 22.0637 29.6148C22.1726 29.5027 22.2579 29.37 22.3145 29.2243C22.3712 29.0787 22.3981 28.9232 22.3936 28.767C22.3936 28.4573 22.2705 28.1603 22.0515 27.9412C21.8325 27.7222 21.5355 27.5992 21.2257 27.5992C20.916 27.5992 20.619 27.7222 20.4 27.9412C20.181 28.1603 20.0579 28.4573 20.0579 28.767Z" fill="#CBD5DC"/>
</g>
<defs>
<clipPath id="clip0_350_785">
<rect width="31" height="31" fill="white"/>
</clipPath>
</defs>
</svg>
