<svg width="46" height="46" viewBox="0 0 46 46" fill="none" xmlns="http://www.w3.org/2000/svg">
<circle cx="23" cy="23" r="23" fill="#2C415A"/>
<path opacity="0.01" d="M13 13H33V33H13" fill="white"/>
<path d="M27.5833 24.6667C27.085 26.4001 25.618 27.6813 23.8333 27.9417C22.4526 28.142 21.0499 27.7707 19.949 26.9136C18.8481 26.0565 18.1443 24.7877 17.9999 23.4C17.8881 22.0061 18.365 20.629 19.3151 19.6029C20.2652 18.5769 21.6016 17.9955 22.9999 18C23.6481 18.0009 24.2901 18.1254 24.8916 18.3667C25.0879 18.4548 25.319 18.379 25.4249 18.1917L26.6249 15.9833C26.6771 15.8806 26.6862 15.7613 26.6503 15.6519C26.6143 15.5424 26.5362 15.4518 26.4333 15.4C23.8137 14.214 20.7677 14.4623 18.3748 16.057C15.9819 17.6517 14.5803 20.3674 14.6666 23.2417C14.8368 27.5935 18.2927 31.1 22.6416 31.3333C27.2176 31.5363 31.0996 28.0079 31.3333 23.4333V21.7667C31.3288 21.5384 31.1449 21.3544 30.9166 21.35H23.4166C23.1865 21.35 22.9999 21.5366 22.9999 21.7667V24.2667C22.9999 24.4968 23.1865 24.6833 23.4166 24.6833H27.5833" fill="white"/>
</svg>
