<svg width="34" height="34" viewBox="0 0 34 34" fill="none" xmlns="http://www.w3.org/2000/svg">
<g clip-path="url(#clip0_350_771)">
<path d="M33.4914 21.1111C31.2201 30.2231 21.9882 35.7621 12.8892 33.4906C3.7769 31.2193 -1.76217 21.9878 0.509318 12.8889C2.78068 3.7769 11.9992 -1.76217 21.1115 0.509319C30.2104 2.7674 35.7629 11.9989 33.4914 21.1111Z" fill="url(#paint0_linear_350_771)"/>
<path d="M25.0943 14.8816C25.4263 12.6238 23.7131 11.4019 21.349 10.5918L22.1193 7.52382L20.2599 7.05897L19.5162 10.0473C19.0248 9.92772 18.5201 9.80819 18.0154 9.70194L18.7592 6.70038L16.8998 6.23553L16.1427 9.29022C15.731 9.19725 15.3326 9.10428 14.9474 9.01132V8.99803L12.3709 8.36053L11.8795 10.3527C11.8795 10.3527 13.2607 10.6715 13.2342 10.6848C13.9912 10.8707 14.124 11.3754 14.0974 11.7738L13.2209 15.2668C13.274 15.2801 13.3404 15.2933 13.4201 15.3332C13.3537 15.3199 13.2873 15.3066 13.2209 15.2801L11.999 20.1676C11.906 20.3933 11.667 20.7387 11.149 20.6058C11.1623 20.6324 9.79431 20.2738 9.79431 20.2738L8.86462 22.4121L11.2951 23.023C11.7467 23.1426 12.1849 23.2488 12.6232 23.3683L11.8529 26.4629L13.7123 26.9277L14.4826 23.8598C14.9873 23.9926 15.492 24.1254 15.9701 24.2449L15.2131 27.2996L17.0724 27.7644L17.8427 24.6699C21.0302 25.2676 23.4209 25.0285 24.417 22.1465C25.2271 19.8355 24.3771 18.4941 22.7037 17.6176C23.9388 17.3387 24.8552 16.5285 25.0943 14.8816ZM20.831 20.8582C20.2599 23.1691 16.3552 21.9207 15.0935 21.6019L16.1162 17.498C17.3779 17.8168 21.442 18.441 20.831 20.8582ZM21.4154 14.8418C20.8842 16.9535 17.6435 15.8777 16.5943 15.6121L17.524 11.8933C18.5732 12.159 21.9599 12.6504 21.4154 14.8418Z" fill="white"/>
</g>
<defs>
<linearGradient id="paint0_linear_350_771" x1="1699.08" y1="-0.815999" x2="1699.08" y2="3399.66" gradientUnits="userSpaceOnUse">
<stop stop-color="#F9AA4B"/>
<stop offset="1" stop-color="#F7931A"/>
</linearGradient>
<clipPath id="clip0_350_771">
<rect width="34" height="34" fill="white"/>
</clipPath>
</defs>
</svg>
