<svg width="48" height="16" viewBox="0 0 48 16" fill="none" xmlns="http://www.w3.org/2000/svg">
<g clip-path="url(#clip0_350_766)">
<path d="M24.8244 5.27615C24.7971 7.35735 26.7488 8.51868 28.2189 9.20922C29.7294 9.91765 30.2368 10.372 30.2308 11.0056C30.2196 11.9752 29.0259 12.4031 27.909 12.4198C25.9603 12.4489 24.8272 11.9127 23.9265 11.5071L23.2245 14.6732C24.1283 15.0746 25.8017 15.4246 27.537 15.44C31.6104 15.44 34.2754 13.5019 34.2898 10.4971C34.3057 6.68344 28.8171 6.47235 28.8546 4.76777C28.8675 4.25091 29.3792 3.69934 30.5004 3.5591C31.0554 3.48826 32.5875 3.43404 34.3245 4.205L35.0062 1.14175C34.0721 0.813919 32.8716 0.500003 31.3768 0.500003C27.5428 0.500003 24.8462 2.46446 24.8244 5.27615ZM41.5571 0.763858C40.8133 0.763858 40.1865 1.18205 39.9067 1.8238L34.0881 15.215H38.1585L38.9685 13.0574H43.9425L44.4124 15.215H48L44.8693 0.763858H41.5571ZM42.1266 4.66765L43.3013 10.0942H40.0841L42.1266 4.66765ZM19.8892 0.764038L16.6807 15.2148H20.5596L23.7666 0.763678H19.8892M14.1512 0.763678L10.1139 10.5999L8.48081 2.23657C8.28919 1.30295 7.53244 0.763858 6.69206 0.763858H0.0924375L0 1.1835C1.35487 1.46687 2.89425 1.92392 3.82687 2.41295C4.39762 2.71169 4.56038 2.97283 4.74788 3.68271L7.84106 15.215H11.94L18.2243 0.763858L14.1512 0.763678Z" fill="url(#paint0_linear_350_766)"/>
</g>
<defs>
<linearGradient id="paint0_linear_350_766" x1="2206.75" y1="45.4096" x2="2248.44" y2="-1489.04" gradientUnits="userSpaceOnUse">
<stop stop-color="#222357"/>
<stop offset="1" stop-color="#254AA5"/>
</linearGradient>
<clipPath id="clip0_350_766">
<rect width="48" height="15" fill="white" transform="translate(0 0.5)"/>
</clipPath>
</defs>
</svg>
