<svg width="30" height="34" viewBox="0 0 30 34" fill="none" xmlns="http://www.w3.org/2000/svg">
<g clip-path="url(#clip0_350_795)">
<path d="M25.4494 2.80215C23.8165 0.908929 20.8648 0.0972595 17.0887 0.0972595H6.12931C5.7557 0.0972736 5.39435 0.23286 5.11022 0.479643C4.82609 0.726425 4.63783 1.06822 4.57927 1.44356L0.0159922 30.8833C-0.0747109 31.4639 0.367203 31.9896 0.945641 31.9896H7.71158L9.4108 21.0261L9.35806 21.3694C9.47912 20.5945 10.1307 20.0229 10.9022 20.0229H14.1174C20.4336 20.0229 25.3792 17.4133 26.8239 9.86411C26.8668 9.64084 26.904 9.42353 26.9361 9.21122C26.7537 9.113 26.7537 9.113 26.9361 9.21122C27.3663 6.42098 26.9331 4.52168 25.4494 2.80215Z" fill="#27346A"/>
<path d="M11.9997 8.20608C12.1847 8.11649 12.387 8.07006 12.5919 8.07019H21.1838C22.2012 8.07019 23.1502 8.13754 24.0174 8.27951C24.2601 8.31887 24.5015 8.36586 24.7413 8.42041C25.0812 8.4967 25.4171 8.59008 25.7479 8.70019C26.1742 8.84502 26.5713 9.0137 26.9362 9.21122C27.3663 6.41991 26.9331 4.52168 25.4494 2.80215C23.8156 0.908928 20.8648 0.0972595 17.0887 0.0972595H6.12838C5.3567 0.0972595 4.70021 0.66873 4.57927 1.44356L0.0159928 30.8823C-0.0747103 31.4637 0.367204 31.9887 0.944704 31.9887H7.71158L11.2369 9.24794C11.2716 9.02441 11.3591 8.8128 11.492 8.63131C11.6249 8.44983 11.7991 8.3039 11.9997 8.20608Z" fill="#27346A"/>
<path d="M26.8239 9.86411C25.3792 17.4122 20.4336 20.0229 14.1173 20.0229H10.9012C10.1297 20.0229 9.47799 20.5945 9.35811 21.3695L7.24417 35.0012C7.16518 35.5092 7.55143 35.9696 8.05674 35.9696H13.7603C14.087 35.9695 14.4029 35.8508 14.6513 35.635C14.8997 35.4191 15.0642 35.1201 15.1153 34.7918L15.1708 34.4962L16.2458 27.5661L16.3151 27.1831C16.3661 26.8549 16.5306 26.5559 16.779 26.34C17.0274 26.1241 17.3433 26.0055 17.67 26.0053H18.5236C24.0486 26.0053 28.3748 23.7221 29.639 17.1186C30.1667 14.359 29.8937 12.055 28.4978 10.4367C28.0744 9.94649 27.5485 9.54166 26.936 9.21123C26.9028 9.4246 26.8669 9.64084 26.8239 9.86411Z" fill="#2790C3"/>
<path d="M25.424 8.59803C25.1987 8.53112 24.9714 8.47188 24.7422 8.42042C24.5023 8.36675 24.2609 8.32009 24.0183 8.28047C23.1502 8.13754 22.2019 8.07007 21.1836 8.07007H12.5927C12.3877 8.0696 12.1852 8.11643 12.0005 8.20704C11.7997 8.30456 11.6253 8.4504 11.4923 8.63194C11.3594 8.81348 11.272 9.02524 11.2376 9.24889L9.41162 21.0261L9.35889 21.3695C9.479 20.5945 10.1306 20.0229 10.9022 20.0229H14.1183C20.4345 20.0229 25.3801 17.4133 26.8247 9.86411C26.8678 9.64084 26.9038 9.42448 26.937 9.21122C26.5712 9.01477 26.1752 8.84503 25.7487 8.70114C25.6411 8.66486 25.5329 8.63048 25.4241 8.59803" fill="#1F264F"/>
</g>
<defs>
<clipPath id="clip0_350_795">
<rect width="30" height="36" fill="white"/>
</clipPath>
</defs>
</svg>
