<svg width="34" height="34" viewBox="0 0 34 34" fill="none" xmlns="http://www.w3.org/2000/svg">
<path d="M21.875 20.1667V15.4167H26.25V12.25L32.0833 17.7917L26.25 23.3333V20.1667H21.875ZM20.4166 10.1917V12.25H2.91663V10.1917L11.6666 4.33334L20.4166 10.1917ZM10.2083 13.8333H13.125V21.75H10.2083V13.8333ZM4.37496 13.8333H7.29163V21.75H4.37496V13.8333ZM18.9583 13.8333V17.7917L16.0416 20.6417V13.8333H18.9583ZM13.2708 23.3333L12.3958 24.125L14.875 26.5H2.91663V23.3333H13.2708ZM24.7916 21.75V26.5H20.4166V29.6667L14.5833 24.125L20.4166 18.5833V21.75H24.7916Z" fill="black"/>
</svg>
