<svg width="119" height="19" viewBox="0 0 119 19" fill="none" xmlns="http://www.w3.org/2000/svg">
<path d="M6.53612 14L2.30612 2.732H2.23412C2.25812 2.972 2.27612 3.278 2.28812 3.65C2.31212 4.022 2.33012 4.43 2.34212 4.874C2.35412 5.306 2.36012 5.75 2.36012 6.206V14H0.866117V1.148H3.26012L7.22012 11.678H7.29212L11.3241 1.148H13.7001V14H12.0981V6.098C12.0981 5.678 12.1041 5.264 12.1161 4.856C12.1281 4.436 12.1461 4.046 12.1701 3.686C12.1941 3.314 12.2121 3.002 12.2241 2.75H12.1521L7.86812 14H6.53612ZM25.3682 9.158C25.3682 9.962 25.2602 10.676 25.0442 11.3C24.8402 11.912 24.5402 12.434 24.1442 12.866C23.7602 13.298 23.2862 13.628 22.7222 13.856C22.1702 14.072 21.5522 14.18 20.8682 14.18C20.2322 14.18 19.6442 14.072 19.1042 13.856C18.5642 13.628 18.0962 13.298 17.7002 12.866C17.3042 12.434 16.9922 11.912 16.7642 11.3C16.5482 10.676 16.4402 9.962 16.4402 9.158C16.4402 8.09 16.6202 7.19 16.9802 6.458C17.3402 5.714 17.8562 5.15 18.5282 4.766C19.2002 4.37 19.9982 4.172 20.9222 4.172C21.7982 4.172 22.5662 4.37 23.2262 4.766C23.8982 5.15 24.4202 5.714 24.7922 6.458C25.1762 7.19 25.3682 8.09 25.3682 9.158ZM18.0782 9.158C18.0782 9.914 18.1742 10.574 18.3662 11.138C18.5702 11.69 18.8822 12.116 19.3022 12.416C19.7222 12.716 20.2562 12.866 20.9042 12.866C21.5522 12.866 22.0862 12.716 22.5062 12.416C22.9262 12.116 23.2322 11.69 23.4242 11.138C23.6282 10.574 23.7302 9.914 23.7302 9.158C23.7302 8.39 23.6282 7.736 23.4242 7.196C23.2202 6.656 22.9082 6.242 22.4882 5.954C22.0802 5.654 21.5462 5.504 20.8862 5.504C19.9022 5.504 19.1882 5.828 18.7442 6.476C18.3002 7.124 18.0782 8.018 18.0782 9.158ZM29.4626 3.65C29.4626 4.058 29.4506 4.442 29.4266 4.802C29.4146 5.15 29.3966 5.426 29.3726 5.63H29.4626C29.7386 5.222 30.1166 4.88 30.5966 4.604C31.0766 4.328 31.6946 4.19 32.4506 4.19C33.6506 4.19 34.6106 4.61 35.3306 5.45C36.0626 6.278 36.4286 7.52 36.4286 9.176C36.4286 10.28 36.2606 11.204 35.9246 11.948C35.6006 12.692 35.1386 13.25 34.5386 13.622C33.9386 13.994 33.2426 14.18 32.4506 14.18C31.6946 14.18 31.0766 14.042 30.5966 13.766C30.1166 13.49 29.7386 13.16 29.4626 12.776H29.3366L29.0126 14H27.8786V0.319999H29.4626V3.65ZM32.1806 5.504C31.4966 5.504 30.9566 5.636 30.5606 5.9C30.1646 6.152 29.8826 6.548 29.7146 7.088C29.5466 7.616 29.4626 8.294 29.4626 9.122V9.194C29.4626 10.382 29.6546 11.294 30.0386 11.93C30.4346 12.554 31.1606 12.866 32.2166 12.866C33.0806 12.866 33.7226 12.548 34.1426 11.912C34.5746 11.276 34.7906 10.358 34.7906 9.158C34.7906 7.946 34.5746 7.034 34.1426 6.422C33.7226 5.81 33.0686 5.504 32.1806 5.504ZM40.5369 4.352V14H38.9529V4.352H40.5369ZM39.7629 0.733999C40.0029 0.733999 40.2129 0.817999 40.3929 0.985999C40.5849 1.142 40.6809 1.394 40.6809 1.742C40.6809 2.078 40.5849 2.33 40.3929 2.498C40.2129 2.666 40.0029 2.75 39.7629 2.75C39.4989 2.75 39.2769 2.666 39.0969 2.498C38.9169 2.33 38.8269 2.078 38.8269 1.742C38.8269 1.394 38.9169 1.142 39.0969 0.985999C39.2769 0.817999 39.4989 0.733999 39.7629 0.733999ZM45.1775 14H43.5935V0.319999H45.1775V14ZM51.9601 4.172C52.7881 4.172 53.4961 4.352 54.0841 4.712C54.6841 5.072 55.1401 5.582 55.4521 6.242C55.7761 6.89 55.9381 7.652 55.9381 8.528V9.482H49.3321C49.3561 10.574 49.6321 11.408 50.1601 11.984C50.7001 12.548 51.4501 12.83 52.4101 12.83C53.0221 12.83 53.5621 12.776 54.0301 12.668C54.5101 12.548 55.0021 12.38 55.5061 12.164V13.55C55.0141 13.766 54.5281 13.922 54.0481 14.018C53.5681 14.126 52.9981 14.18 52.3381 14.18C51.4261 14.18 50.6161 13.994 49.9081 13.622C49.2121 13.25 48.6661 12.698 48.2701 11.966C47.8861 11.222 47.6941 10.316 47.6941 9.248C47.6941 8.192 47.8681 7.286 48.2161 6.53C48.5761 5.774 49.0741 5.192 49.7101 4.784C50.3581 4.376 51.1081 4.172 51.9601 4.172ZM51.9421 5.468C51.1861 5.468 50.5861 5.714 50.1421 6.206C49.7101 6.686 49.4521 7.358 49.3681 8.222H54.2821C54.2821 7.67 54.1981 7.19 54.0301 6.782C53.8621 6.374 53.6041 6.056 53.2561 5.828C52.9201 5.588 52.4821 5.468 51.9421 5.468ZM68.956 14L64.726 2.732H64.654C64.678 2.972 64.696 3.278 64.708 3.65C64.732 4.022 64.75 4.43 64.762 4.874C64.774 5.306 64.78 5.75 64.78 6.206V14H63.286V1.148H65.68L69.64 11.678H69.712L73.744 1.148H76.12V14H74.518V6.098C74.518 5.678 74.524 5.264 74.536 4.856C74.548 4.436 74.566 4.046 74.59 3.686C74.614 3.314 74.632 3.002 74.644 2.75H74.572L70.288 14H68.956ZM87.7881 9.158C87.7881 9.962 87.6801 10.676 87.4641 11.3C87.2601 11.912 86.9601 12.434 86.5641 12.866C86.1801 13.298 85.7061 13.628 85.1421 13.856C84.5901 14.072 83.9721 14.18 83.2881 14.18C82.6521 14.18 82.0641 14.072 81.5241 13.856C80.9841 13.628 80.5161 13.298 80.1201 12.866C79.7241 12.434 79.4121 11.912 79.1841 11.3C78.9681 10.676 78.8601 9.962 78.8601 9.158C78.8601 8.09 79.0401 7.19 79.4001 6.458C79.7601 5.714 80.2761 5.15 80.9481 4.766C81.6201 4.37 82.4181 4.172 83.3421 4.172C84.2181 4.172 84.9861 4.37 85.6461 4.766C86.3181 5.15 86.8401 5.714 87.2121 6.458C87.5961 7.19 87.7881 8.09 87.7881 9.158ZM80.4981 9.158C80.4981 9.914 80.5941 10.574 80.7861 11.138C80.9901 11.69 81.3021 12.116 81.7221 12.416C82.1421 12.716 82.6761 12.866 83.3241 12.866C83.9721 12.866 84.5061 12.716 84.9261 12.416C85.3461 12.116 85.6521 11.69 85.8441 11.138C86.0481 10.574 86.1501 9.914 86.1501 9.158C86.1501 8.39 86.0481 7.736 85.8441 7.196C85.6401 6.656 85.3281 6.242 84.9081 5.954C84.5001 5.654 83.9661 5.504 83.3061 5.504C82.3221 5.504 81.6081 5.828 81.1641 6.476C80.7201 7.124 80.4981 8.018 80.4981 9.158ZM94.9426 4.172C96.0946 4.172 96.9646 4.454 97.5526 5.018C98.1406 5.57 98.4346 6.47 98.4346 7.718V14H96.8686V7.826C96.8686 7.046 96.6946 6.464 96.3466 6.08C95.9986 5.696 95.4526 5.504 94.7086 5.504C93.6406 5.504 92.9026 5.804 92.4946 6.404C92.0866 7.004 91.8826 7.868 91.8826 8.996V14H90.2986V4.352H91.5766L91.8106 5.666H91.9006C92.1166 5.33 92.3806 5.054 92.6926 4.838C93.0166 4.61 93.3706 4.442 93.7546 4.334C94.1386 4.226 94.5346 4.172 94.9426 4.172ZM105.152 4.172C105.98 4.172 106.688 4.352 107.276 4.712C107.876 5.072 108.332 5.582 108.644 6.242C108.968 6.89 109.13 7.652 109.13 8.528V9.482H102.524C102.548 10.574 102.824 11.408 103.352 11.984C103.892 12.548 104.642 12.83 105.602 12.83C106.214 12.83 106.754 12.776 107.222 12.668C107.702 12.548 108.194 12.38 108.698 12.164V13.55C108.206 13.766 107.72 13.922 107.24 14.018C106.76 14.126 106.19 14.18 105.53 14.18C104.618 14.18 103.808 13.994 103.1 13.622C102.404 13.25 101.858 12.698 101.462 11.966C101.078 11.222 100.886 10.316 100.886 9.248C100.886 8.192 101.06 7.286 101.408 6.53C101.768 5.774 102.266 5.192 102.902 4.784C103.55 4.376 104.3 4.172 105.152 4.172ZM105.134 5.468C104.378 5.468 103.778 5.714 103.334 6.206C102.902 6.686 102.644 7.358 102.56 8.222H107.474C107.474 7.67 107.39 7.19 107.222 6.782C107.054 6.374 106.796 6.056 106.448 5.828C106.112 5.588 105.674 5.468 105.134 5.468ZM109.722 4.352H111.414L113.502 9.842C113.622 10.166 113.73 10.478 113.826 10.778C113.934 11.078 114.03 11.372 114.114 11.66C114.198 11.936 114.264 12.206 114.312 12.47H114.384C114.456 12.17 114.57 11.78 114.726 11.3C114.882 10.808 115.044 10.316 115.212 9.824L117.174 4.352H118.884L114.726 15.332C114.498 15.932 114.228 16.454 113.916 16.898C113.616 17.354 113.244 17.702 112.8 17.942C112.368 18.194 111.84 18.32 111.216 18.32C110.928 18.32 110.676 18.302 110.46 18.266C110.244 18.242 110.058 18.212 109.902 18.176V16.916C110.034 16.94 110.19 16.964 110.37 16.988C110.562 17.012 110.76 17.024 110.964 17.024C111.336 17.024 111.654 16.952 111.918 16.808C112.194 16.676 112.428 16.478 112.62 16.214C112.812 15.962 112.974 15.662 113.106 15.314L113.61 14.036L109.722 4.352Z" fill="#2C415A"/>
</svg>
