<svg width="50" height="50" viewBox="0 0 50 50" fill="none" xmlns="http://www.w3.org/2000/svg">
<circle cx="25" cy="25" r="25" fill="#2C415A"/>
<path d="M37.7349 28.3409H10.3156C10.1423 28.3409 10.0004 28.4688 10.0004 28.625V30.7557C10.0004 30.9119 10.1423 31.0398 10.3156 31.0398H34.1612L28.4756 37.5384C28.3141 37.723 28.4599 38 28.7239 38H31.5804C31.7735 38 31.9547 37.9219 32.0769 37.7834L38.7278 30.1804C39.3779 29.4347 38.7908 28.3409 37.7349 28.3409ZM38.6845 19.9602H14.8389L20.5245 13.4616C20.686 13.277 20.5402 13 20.2762 13H17.4197C17.2266 13 17.0454 13.0781 16.9232 13.2166L10.2723 20.8196C9.62218 21.5653 10.2093 22.6591 11.2613 22.6591H38.6845C38.8578 22.6591 38.9997 22.5312 38.9997 22.375V20.2443C38.9997 20.0881 38.8578 19.9602 38.6845 19.9602Z" fill="white"/>
</svg>
