<svg width="46" height="46" viewBox="0 0 46 46" fill="none" xmlns="http://www.w3.org/2000/svg">
<circle cx="23" cy="23" r="23" fill="#2C415A"/>
<path opacity="0.01" d="M13 13H33V33H13" fill="white"/>
<path d="M19.7333 29.6667C22.2228 29.75 24.6402 28.823 26.4357 27.0965C28.2312 25.37 29.2522 22.9909 29.2666 20.5C29.8313 19.8012 30.2506 18.9965 30.4999 18.1333C30.5379 17.994 30.4907 17.8454 30.3791 17.7536C30.2676 17.6619 30.1126 17.6442 29.9833 17.7083C29.3775 17.9999 28.6532 17.8725 28.1833 17.3917C27.5922 16.7444 26.7643 16.3641 25.8882 16.3374C25.0121 16.3108 24.1626 16.64 23.5333 17.25C22.6657 18.0902 22.302 19.3236 22.5749 20.5C19.7833 20.6667 17.8666 19.3417 16.3333 17.525C16.2391 17.4184 16.0909 17.3776 15.9555 17.4209C15.82 17.4642 15.723 17.5836 15.7083 17.725C15.11 21.0435 16.639 24.3839 19.5416 26.1C18.5913 27.1899 17.2568 27.8705 15.8166 28C15.6584 28.0262 15.5344 28.1501 15.5081 28.3083C15.4817 28.4665 15.5588 28.6239 15.6999 28.7C16.9529 29.3261 18.3326 29.6568 19.7333 29.6667Z" fill="white"/>
</svg>
