<?xml version="1.0" encoding="utf-8"?>
<!-- Generator: Adobe Illustrator 28.0.0, SVG Export Plug-In . SVG Version: 6.00 Build 0)  -->
<svg version="1.1" id="Layer_1" xmlns="http://www.w3.org/2000/svg" xmlns:xlink="http://www.w3.org/1999/xlink" x="0px" y="0px"
	 viewBox="0 0 857.84 260.88" style="enable-background:new 0 0 857.84 260.88;" xml:space="preserve">
<style type="text/css">
	.st0{fill:#FFFFFF;}
	.st1{fill:#2D2A2B;}
	.st2{fill:#4AC4D3;}
	.st3{fill:#45459C;}
</style>
<g>
	<g>
		<path d="M422.93,44.01c-6.61-7.19-15.44-10.78-26.47-10.78c-12.71,0-22.28,4.63-28.7,13.87c-5.65-9.24-14.38-13.87-26.19-13.87
			c-12.06,0-20.99,4.31-26.77,12.9v-10.2h-24.84v96.29h24.84V78.11c0-7.06,1.64-12.46,4.92-16.18c3.28-3.72,7.67-5.59,13.19-5.59
			c5.12,0,9.12,1.61,11.94,4.82c2.82,3.21,4.23,7.7,4.23,13.48v57.58h24.84V78.11c0-7.06,1.57-12.46,4.72-16.18
			c3.14-3.72,7.55-5.59,13.19-5.59c5.14,0,9.12,1.61,11.94,4.82c2.82,3.21,4.24,7.7,4.24,13.48v57.58h24.84V72.9
			C432.85,60.84,429.54,51.22,422.93,44.01z"/>
		<path d="M532.53,47.97c-9.89-9.82-21.96-14.74-36.2-14.74c-14.25,0-26.29,4.92-36.12,14.74c-9.82,9.82-14.72,21.85-14.72,36.11
			c0,14.25,4.9,26.29,14.72,36.11c9.83,9.82,21.87,14.74,36.12,14.74c14.24,0,26.32-4.92,36.2-14.74
			c9.87-9.82,14.82-21.85,14.82-36.11C547.35,69.82,542.4,57.78,532.53,47.97z M515,103.15c-5.01,5-11.24,7.51-18.67,7.51
			c-7.45,0-13.65-2.51-18.59-7.51c-4.94-5.01-7.41-11.36-7.41-19.07c0-7.7,2.47-14.06,7.41-19.06c4.94-5.01,11.14-7.52,18.59-7.52
			c7.44,0,13.66,2.51,18.67,7.52c5.01,5,7.51,11.36,7.51,19.06C522.5,91.78,520.01,98.13,515,103.15z"/>
		<path d="M740.06,35.93v11.36c-7.45-9.36-17.92-14.06-31.4-14.06c-12.83,0-23.85,4.92-33.02,14.74
			c-9.19,9.82-13.77,21.85-13.77,36.11c0,14.25,4.59,26.29,13.77,36.11c9.17,9.82,20.19,14.74,33.02,14.74
			c13.48,0,23.95-4.68,31.4-14.06v11.36h24.84V35.93H740.06z M732.45,103.63c-5.07,5.07-11.46,7.6-19.16,7.6
			c-7.71,0-14.06-2.53-19.07-7.6c-5-5.08-7.51-11.6-7.51-19.55s2.51-14.47,7.51-19.54c5.01-5.07,11.36-7.62,19.07-7.62
			c7.7,0,14.09,2.55,19.16,7.62c5.07,5.07,7.62,11.58,7.62,19.54S737.51,98.55,732.45,103.63z"/>
		<path d="M409.03,147.57l-16.53,60.04l-17.75-60.04h-23.8l-17.74,59.84l-16.69-59.84h-26.58l28.64,97.44h24.64l18.44-59.05
			l18.43,59.05h24.64l28.42-97.44H409.03z"/>
		<path d="M522.22,147.57v11.5c-7.53-9.47-18.12-14.23-31.77-14.23c-12.99,0-24.13,4.97-33.42,14.91
			c-9.28,9.93-13.92,22.12-13.92,36.53c0,14.42,4.64,26.61,13.92,36.53c9.3,9.94,20.44,14.91,33.42,14.91
			c13.65,0,24.24-4.74,31.77-14.23v11.5h25.13v-97.44H522.22z M514.52,216.07c-5.14,5.14-11.6,7.7-19.39,7.7
			c-7.79,0-14.23-2.56-19.29-7.7c-5.07-5.12-7.6-11.72-7.6-19.78c0-8.06,2.53-14.65,7.6-19.78c5.07-5.14,11.5-7.7,19.29-7.7
			c7.79,0,14.25,2.56,19.39,7.7c5.14,5.12,7.7,11.72,7.7,19.78C522.22,204.35,519.65,210.95,514.52,216.07z"/>
		<g>
			<path d="M580.3,144.61l-3.03-7.99l-10.91-1.72v110.11h25.15V144.61H580.3z"/>
			<path d="M628.75,136.62l-3.04,7.99h-11.2v100.41h25.13V134.93L628.75,136.62z"/>
		</g>
		<path d="M764.9,196.29c0-14.54-4.65-26.76-13.94-36.63c-9.3-9.87-21.08-14.82-35.38-14.82c-15.07,0-27.4,4.9-37.02,14.72
			c-9.63,9.81-14.43,22.05-14.43,36.73c0,14.82,4.88,27.09,14.62,36.84c9.74,9.74,22.67,14.61,38.78,14.61
			c18.7,0,32.87-6.95,42.48-20.85l-20.27-11.69c-4.93,6.5-12.21,9.74-21.83,9.74c-14.94,0-24.1-6.1-27.47-18.32h73.47
			C764.57,202.99,764.9,199.54,764.9,196.29z M690.07,187.14c1.42-6.24,4.35-11.07,8.76-14.51c4.42-3.44,10.01-5.16,16.76-5.16
			c5.72,0,10.82,1.62,15.3,4.86c4.49,3.25,7.44,8.19,8.87,14.82H690.07z"/>
		<path d="M837.13,171.74v-24.17h-22.02v-27.28l-25.15,7.6v19.68h-16.95v24.17h16.95v40.53c0,13.39,3.54,22.68,10.62,27.87
			c7.08,5.19,19.27,6.82,36.55,4.88v-22.81c-4.81,0.26-8.84,0.29-12.09,0.1c-3.25-0.19-5.72-1.07-7.4-2.63
			c-1.69-1.56-2.53-4.02-2.53-7.41v-40.53H837.13z"/>
		<g>
			<polygon points="653.76,35.93 628.36,102.75 617.17,132.22 588.85,132.22 577.66,102.75 552.26,35.93 579.61,35.93 
				602.94,103.33 626.41,35.93 			"/>
		</g>
	</g>
	<g>
		<path class="st2" d="M225.05,41.77L41.5,90.54l19.75,135.55l0.39,2.68l-0.47-1.57L20.71,94.42l183.78-80.03
			c9.96-4.34,21.07,3.1,20.84,13.97L225.05,41.77z"/>
		<path class="st3" d="M253.72,56.01l-22.9,131.92c-5.72,32.95-34.4,56.95-67.84,56.78l-62.98-0.33c-3.11-0.02-5.65-2.46-5.8-5.57
			l0,0c-0.13-2.5-0.12-5.01,0.02-7.54c1.32-23.38,14.18-45.22,34.41-59.57l-2.08,31.21c-0.59,8.8,11.22,12.23,15.44,4.47
			l48.02-88.18c3.21-5.89-1.59-12.93-8.24-12.1L82.13,119.5c-8.76,1.09-9.89,13.33-1.49,16.01l28.63,9.12
			c-27.42,19.5-45.19,49.23-48.03,81.44L41.5,90.54l183.55-48.77l10.17-2.7C245.72,36.28,255.58,45.31,253.72,56.01z"/>
	</g>
</g>
</svg>
