<svg width="40" height="40" viewBox="0 0 40 40" fill="none" xmlns="http://www.w3.org/2000/svg">
<circle cx="20" cy="20" r="20" fill="#4FBF67"/>
<g clip-path="url(#clip0_384_1861)">
<path d="M19 10.05V12.062C16.9827 12.3187 15.1389 13.3339 13.8432 14.9012C12.5475 16.4686 11.8973 18.4705 12.0246 20.5C12.152 22.5296 13.0473 24.4345 14.5287 25.8276C16.0102 27.2207 17.9664 27.9975 20 28C21.9486 28 23.8302 27.2888 25.2917 26C26.7533 24.7112 27.6942 22.9333 27.938 21H29.951C29.449 26.053 25.185 30 20 30C14.477 30 10 25.523 10 20C10 14.815 13.947 10.551 19 10.05ZM28 13.414L20 21.414L18.586 20L26.586 12H22V10H30V18H28V13.414Z" fill="white"/>
</g>
<defs>
<clipPath id="clip0_384_1861">
<rect width="24" height="24" fill="white" transform="translate(8 8)"/>
</clipPath>
</defs>
</svg>
