<?xml version="1.0" encoding="utf-8"?>
<!-- Generator: Adobe Illustrator 28.0.0, SVG Export Plug-In . SVG Version: 6.00 Build 0)  -->
<svg version="1.1" id="Layer_1" xmlns="http://www.w3.org/2000/svg" xmlns:xlink="http://www.w3.org/1999/xlink" x="0px" y="0px"
	 viewBox="0 0 282.41 260.88" style="enable-background:new 0 0 282.41 260.88;" xml:space="preserve">
<style type="text/css">
	.st0{fill:#FFFFFF;}
	.st1{fill:#2D2A2B;}
	.st2{fill:#4AC4D3;}
	.st3{fill:#45459C;}
</style>
<g>
	<path class="st2" d="M225.05,41.77L41.5,90.54l19.75,135.55l0.39,2.68l-0.47-1.57L20.71,94.42l183.78-80.03
		c9.96-4.34,21.07,3.1,20.84,13.97L225.05,41.77z"/>
	<path class="st3" d="M253.72,56.01l-22.9,131.92c-5.72,32.95-34.4,56.95-67.84,56.78l-62.98-0.33c-3.11-0.02-5.65-2.46-5.8-5.57
		l0,0c-0.13-2.5-0.12-5.01,0.02-7.54c1.32-23.38,14.18-45.22,34.41-59.57l-2.08,31.21c-0.59,8.8,11.22,12.23,15.44,4.47l48.02-88.18
		c3.21-5.89-1.59-12.93-8.24-12.1L82.13,119.5c-8.76,1.09-9.89,13.33-1.49,16.01l28.63,9.12c-27.42,19.5-45.19,49.23-48.03,81.44
		L41.5,90.54l183.55-48.77l10.17-2.7C245.72,36.28,255.58,45.31,253.72,56.01z"/>
</g>
</svg>
